<svg xmlns="http://www.w3.org/2000/svg" viewBox="0 0 560 320" width="560" height="320">
  <defs>
    <filter id="s" x="-10%" y="-10%" width="130%" height="130%">
      <feDropShadow dx="0" dy="2" stdDeviation="5" flood-opacity="0.08"/>
    </filter>
  </defs>

  <!-- App background -->
  <rect width="560" height="320" fill="#f2efeb"/>

  <!-- Sidebar -->
  <rect width="136" height="320" fill="#0D1F3C"/>

  <!-- Logo -->
  <rect x="14" y="14" width="22" height="22" rx="4" fill="rgba(201,168,76,0.35)"/>
  <rect x="42" y="20" width="54" height="8" rx="2" fill="#C9A84C"/>

  <!-- Active nav item -->
  <rect x="8" y="52" width="120" height="26" rx="6" fill="rgba(201,168,76,0.15)"/>
  <rect x="22" y="62" width="8" height="8" rx="2" fill="#C9A84C"/>
  <rect x="36" y="64" width="56" height="5" rx="2" fill="#C9A84C"/>

  <!-- Other nav items -->
  <rect x="22" y="94" width="8" height="7" rx="2" fill="rgba(255,255,255,0.35)"/>
  <rect x="36" y="96" width="52" height="5" rx="2" fill="rgba(255,255,255,0.35)"/>
  <rect x="22" y="117" width="8" height="7" rx="2" fill="rgba(255,255,255,0.35)"/>
  <rect x="36" y="119" width="66" height="5" rx="2" fill="rgba(255,255,255,0.35)"/>
  <rect x="22" y="140" width="8" height="7" rx="2" fill="rgba(255,255,255,0.35)"/>
  <rect x="36" y="142" width="48" height="5" rx="2" fill="rgba(255,255,255,0.35)"/>
  <rect x="22" y="163" width="8" height="7" rx="2" fill="rgba(255,255,255,0.35)"/>
  <rect x="36" y="165" width="60" height="5" rx="2" fill="rgba(255,255,255,0.35)"/>

  <!-- Top bar -->
  <rect x="136" y="0" width="424" height="42" fill="white"/>
  <rect x="150" y="15" width="110" height="10" rx="3" fill="#0D1F3C" opacity="0.8"/>
  <rect x="462" y="10" width="82" height="22" rx="11" fill="#C9A84C"/>

  <!-- KPI cards -->
  <rect x="148" y="54" width="84" height="56" rx="8" fill="white" filter="url(#s)"/>
  <rect x="160" y="66" width="36" height="5" rx="2" fill="#8a96a8"/>
  <rect x="160" y="78" width="48" height="13" rx="2" fill="#0D1F3C"/>
  <rect x="160" y="97" width="26" height="5" rx="2" fill="rgba(201,168,76,0.8)"/>

  <rect x="240" y="54" width="84" height="56" rx="8" fill="white" filter="url(#s)"/>
  <rect x="252" y="66" width="36" height="5" rx="2" fill="#8a96a8"/>
  <rect x="252" y="78" width="48" height="13" rx="2" fill="#0D1F3C"/>
  <rect x="252" y="97" width="26" height="5" rx="2" fill="rgba(201,168,76,0.8)"/>

  <rect x="332" y="54" width="84" height="56" rx="8" fill="white" filter="url(#s)"/>
  <rect x="344" y="66" width="36" height="5" rx="2" fill="#8a96a8"/>
  <rect x="344" y="78" width="48" height="13" rx="2" fill="#0D1F3C"/>
  <rect x="344" y="97" width="26" height="5" rx="2" fill="rgba(201,168,76,0.8)"/>

  <rect x="424" y="54" width="96" height="56" rx="8" fill="white" filter="url(#s)"/>
  <rect x="436" y="66" width="36" height="5" rx="2" fill="#8a96a8"/>
  <rect x="436" y="78" width="52" height="13" rx="2" fill="#0D1F3C"/>
  <rect x="436" y="97" width="26" height="5" rx="2" fill="rgba(201,168,76,0.8)"/>

  <!-- Chart panel -->
  <rect x="148" y="122" width="204" height="102" rx="8" fill="white" filter="url(#s)"/>
  <rect x="160" y="134" width="78" height="7" rx="2" fill="#0D1F3C" opacity="0.8"/>
  <!-- Bars -->
  <rect x="164" y="192" width="13" height="20" rx="3" fill="#C9A84C" opacity="0.35"/>
  <rect x="182" y="183" width="13" height="29" rx="3" fill="#C9A84C" opacity="0.50"/>
  <rect x="200" y="175" width="13" height="37" rx="3" fill="#C9A84C" opacity="0.65"/>
  <rect x="218" y="168" width="13" height="44" rx="3" fill="#C9A84C" opacity="0.80"/>
  <rect x="236" y="160" width="13" height="52" rx="3" fill="#C9A84C" opacity="0.90"/>
  <rect x="254" y="152" width="13" height="60" rx="3" fill="#C9A84C"/>
  <rect x="272" y="145" width="13" height="67" rx="3" fill="#C9A84C"/>
  <!-- Baseline -->
  <rect x="160" y="212" width="175" height="1" fill="#ddd8d0"/>

  <!-- List panel -->
  <rect x="360" y="122" width="160" height="102" rx="8" fill="white" filter="url(#s)"/>
  <rect x="372" y="134" width="68" height="7" rx="2" fill="#0D1F3C" opacity="0.8"/>
  <rect x="372" y="154" width="126" height="6" rx="2" fill="#4a5568" opacity="0.5"/>
  <rect x="372" y="168" width="96" height="6" rx="2" fill="#4a5568" opacity="0.42"/>
  <rect x="372" y="182" width="114" height="6" rx="2" fill="#4a5568" opacity="0.42"/>
  <rect x="372" y="196" width="78" height="6" rx="2" fill="#4a5568" opacity="0.34"/>
  <rect x="430" y="151" width="56" height="14" rx="7" fill="rgba(201,168,76,0.18)"/>
  <rect x="436" y="156" width="44" height="4" rx="2" fill="#C9A84C" opacity="0.8"/>

  <!-- Bottom table -->
  <rect x="148" y="236" width="372" height="72" rx="8" fill="white" filter="url(#s)"/>
  <rect x="160" y="248" width="88" height="7" rx="2" fill="#0D1F3C" opacity="0.8"/>
  <rect x="160" y="264" width="355" height="1" fill="#ece8e2"/>
  <rect x="160" y="268" width="105" height="6" rx="2" fill="#4a5568" opacity="0.5"/>
  <rect x="320" y="268" width="56" height="6" rx="2" fill="#C9A84C" opacity="0.7"/>
  <rect x="160" y="280" width="355" height="1" fill="#ece8e2"/>
  <rect x="160" y="284" width="86" height="6" rx="2" fill="#4a5568" opacity="0.5"/>
  <rect x="320" y="284" width="48" height="6" rx="2" fill="#C9A84C" opacity="0.7"/>
  <rect x="160" y="296" width="72" height="6" rx="2" fill="#4a5568" opacity="0.35"/>
</svg>
