<svg xmlns="http://www.w3.org/2000/svg" viewBox="0 0 400 260" width="400" height="260">
  <title>DashClub Logo</title>
  <desc>Logo DashClub — podium avec drapeau damier sur la première marche</desc>

  <!-- Fond navy -->
  <rect width="400" height="260" fill="#0D1F3C" rx="16"/>

  <!-- ── DRAPEAU DAMIER ── -->
  <!-- Mat -->
  <line x1="192" y1="52" x2="192" y2="108" stroke="#FFFFFF" stroke-width="3" stroke-linecap="round"/>

  <!-- Drapeau 4x4 cases -->
  <!-- Rangée 1 -->
  <rect x="192" y="12" width="14" height="10" fill="#FFFFFF"/>
  <rect x="206" y="12" width="14" height="10" fill="#0D1F3C"/>
  <rect x="220" y="12" width="14" height="10" fill="#FFFFFF"/>
  <rect x="234" y="12" width="14" height="10" fill="#0D1F3C"/>
  <!-- Rangée 2 -->
  <rect x="192" y="22" width="14" height="10" fill="#0D1F3C"/>
  <rect x="206" y="22" width="14" height="10" fill="#FFFFFF"/>
  <rect x="220" y="22" width="14" height="10" fill="#0D1F3C"/>
  <rect x="234" y="22" width="14" height="10" fill="#FFFFFF"/>
  <!-- Rangée 3 -->
  <rect x="192" y="32" width="14" height="10" fill="#FFFFFF"/>
  <rect x="206" y="32" width="14" height="10" fill="#0D1F3C"/>
  <rect x="220" y="32" width="14" height="10" fill="#FFFFFF"/>
  <rect x="234" y="32" width="14" height="10" fill="#0D1F3C"/>
  <!-- Rangée 4 -->
  <rect x="192" y="42" width="14" height="10" fill="#0D1F3C"/>
  <rect x="206" y="42" width="14" height="10" fill="#FFFFFF"/>
  <rect x="220" y="42" width="14" height="10" fill="#0D1F3C"/>
  <rect x="234" y="42" width="14" height="10" fill="#FFFFFF"/>

  <!-- Contour drapeau or -->
  <rect x="192" y="12" width="56" height="40" fill="none" stroke="#C9A84C" stroke-width="2" rx="1"/>

  <!-- ── PODIUM ── -->

  <!-- Marche 3 — gauche -->
  <rect x="90" y="152" width="80" height="68" rx="6" fill="#1E3F6E"/>
  <text x="130" y="194" text-anchor="middle" font-family="system-ui, -apple-system, sans-serif" font-size="22" font-weight="700" fill="#8A96A8">3</text>

  <!-- Marche 1 — centre (or) -->
  <rect x="152" y="108" width="82" height="112" rx="6" fill="#C9A84C"/>
  <!-- Reflet haut -->
  <rect x="152" y="108" width="82" height="20" rx="6" fill="#E2C170" opacity="0.35"/>
  <text x="193" y="172" text-anchor="middle" font-family="system-ui, -apple-system, sans-serif" font-size="26" font-weight="700" fill="#0D1F3C">1</text>

  <!-- Marche 2 — droite -->
  <rect x="216" y="132" width="80" height="88" rx="6" fill="#1E3F6E"/>
  <text x="256" y="182" text-anchor="middle" font-family="system-ui, -apple-system, sans-serif" font-size="22" font-weight="700" fill="#8A96A8">2</text>

  <!-- Ligne d'arrivée pointillée -->
  <line x1="82" y1="224" x2="304" y2="224" stroke="#C9A84C" stroke-width="1.5" stroke-dasharray="8 5" opacity="0.5"/>

</svg>
